<svg xmlns="http://www.w3.org/2000/svg" xmlns:xlink="http://www.w3.org/1999/xlink">
  <defs>
    <symbol id="plus" viewBox="0 0 20 20">
      <path d="M18.9583 10.625H12.7083V4.37504C12.7083 4.09877 12.5986 3.83382 12.4032 3.63847C12.2079 3.44312 11.9429 3.33337 11.6667 3.33337C11.3904 3.33337 11.1255 3.44312 10.9301 3.63847C10.7348 3.83382 10.625 4.09877 10.625 4.37504V10.625H4.37501C4.09874 10.625 3.83379 10.7348 3.63844 10.9301C3.44309 11.1255 3.33334 11.3904 3.33334 11.6667C3.33334 11.943 3.44309 12.2079 3.63844 12.4033C3.83379 12.5986 4.09874 12.7084 4.37501 12.7084H10.625V18.9584C10.625 19.2346 10.7348 19.4996 10.9301 19.6949C11.1255 19.8903 11.3904 20 11.6667 20C11.9429 20 12.2079 19.8903 12.4032 19.6949C12.5986 19.4996 12.7083 19.2346 12.7083 18.9584V12.7084H18.9583C19.2346 12.7084 19.4996 12.5986 19.6949 12.4033C19.8903 12.2079 20 11.943 20 11.6667C20 11.3904 19.8903 11.1255 19.6949 10.9301C19.4996 10.7348 19.2346 10.625 18.9583 10.625Z" />
    </symbol>

    <symbol id="chevron-up" viewBox="0 0 20 20">
        <path d="M6.175 12.8417L10 9.02502L13.825 12.8417L15 11.6667L10 6.66669L5 11.6667L6.175 12.8417Z" />
    </symbol>

    <symbol id="chevron-down" viewBox="0 0 20 20">
      <path d="M6.175 7.15002L10 10.975L13.825 7.15002L15 8.33336L10 13.3334L5 8.33336L6.175 7.15002Z" />
    </symbol>

    <symbol id="sorting" viewBox="0 0 20 20">
        <path d="M15.8333 14.1667H18.3333L15 17.5L11.6667 14.1667H14.1667V2.5H15.8333M9.16666 10.8333V12.5L6.39166 15.8333H9.16666V17.5H4.16666V15.8333L6.94166 12.5H4.16666V10.8333M7.49999 2.5H5.83332C4.91666 2.5 4.16666 3.25 4.16666 4.16667V9.16667H5.83332V7.5H7.49999V9.16667H9.16666V4.16667C9.16666 3.25 8.42499 2.5 7.49999 2.5ZM7.49999 5.83333H5.83332V4.16667H7.49999V5.83333Z" fill="black"/>
        <path d="M15.8333 5.83333H18.3333L15 2.5L11.6667 5.83333H14.1667V17.5H15.8333M9.16666 10.8333V12.5L6.39166 15.8333H9.16666V17.5H4.16666V15.8333L6.94166 12.5H4.16666V10.8333M7.49999 2.5H5.83332C4.91666 2.5 4.16666 3.25 4.16666 4.16667V9.16667H5.83332V7.5H7.49999V9.16667H9.16666V4.16667C9.16666 3.25 8.42499 2.5 7.49999 2.5ZM7.49999 5.83333H5.83332V4.16667H7.49999V5.83333Z" fill="black"/>
    </symbol>

    <symbol id="sort_asc" viewBox="0 0 20 20">
        <path d="M15.8333 14.1667H18.3333L15 17.5L11.6667 14.1667H14.1667V2.5H15.8333M9.16666 10.8333V12.5L6.39166 15.8333H9.16666V17.5H4.16666V15.8333L6.94166 12.5H4.16666V10.8333M7.49999 2.5H5.83332C4.91666 2.5 4.16666 3.25 4.16666 4.16667V9.16667H5.83332V7.5H7.49999V9.16667H9.16666V4.16667C9.16666 3.25 8.42499 2.5 7.49999 2.5ZM7.49999 5.83333H5.83332V4.16667H7.49999V5.83333Z" fill="black"/>
    </symbol>
    <symbol id="sort_desc" viewBox="0 0 20 20">
        <path d="M15.8333 5.83333H18.3333L15 2.5L11.6667 5.83333H14.1667V17.5H15.8333M9.16666 10.8333V12.5L6.39166 15.8333H9.16666V17.5H4.16666V15.8333L6.94166 12.5H4.16666V10.8333M7.49999 2.5H5.83332C4.91666 2.5 4.16666 3.25 4.16666 4.16667V9.16667H5.83332V7.5H7.49999V9.16667H9.16666V4.16667C9.16666 3.25 8.42499 2.5 7.49999 2.5ZM7.49999 5.83333H5.83332V4.16667H7.49999V5.83333Z" fill="black"/>
    </symbol>
    <symbol id="filter" viewBox="0 0 20 20">
        <path d="M12.5 16.5667C12.5333 16.8167 12.45 17.0833 12.2583 17.2583C11.9333 17.5833 11.4083 17.5833 11.0833 17.2583L7.74168 13.9167C7.55001 13.725 7.46668 13.4667 7.50001 13.225V8.95833L3.50835 3.85C3.22501 3.49167 3.29168 2.96667 3.65001 2.68333C3.80835 2.56667 3.98335 2.5 4.16668 2.5H15.8333C16.0167 2.5 16.1917 2.56667 16.35 2.68333C16.7083 2.96667 16.775 3.49167 16.4917 3.85L12.5 8.95833V16.5667ZM5.86668 4.16667L9.16668 8.38333V12.9833L10.8333 14.65V8.375L14.1333 4.16667H5.86668Z" fill="black"/>
    </symbol>
    <symbol id="filter_off" viewBox="0 0 20 20">
        <path d="M12.5 14.1667H19.1667V15.8333H12.5V14.1667ZM10.8333 16.5667C10.8667 16.8167 10.7833 17.0833 10.6 17.2583C10.2667 17.5833 9.74166 17.5833 9.41666 17.2583L6.07499 13.9167C5.88333 13.725 5.79999 13.4667 5.83333 13.225V8.95833L1.84166 3.85C1.55833 3.49167 1.62499 2.96667 1.98333 2.68333C2.14166 2.56667 2.31666 2.5 2.49999 2.5H14.1667C14.35 2.5 14.525 2.56667 14.6833 2.68333C15.0417 2.96667 15.1083 3.49167 14.825 3.85L10.8333 8.95833V16.5667ZM4.19999 4.16667L7.49999 8.39167V12.9833L9.16666 14.65V8.375L12.4667 4.16667H4.19999Z" fill="black"/>
    </symbol> 
    <symbol id="homme" viewBox="0 0 20 20">
<path d="M7.5 7.5C8.575 7.5 9.58333 7.84167 10.3917 8.425L14.65 4.16667H10.8333V2.5H17.5V9.16667H15.8333V5.34167L11.575 9.58333C12.1583 10.4167 12.5 11.4167 12.5 12.5C12.5 13.8261 11.9732 15.0979 11.0355 16.0355C10.0979 16.9732 8.82608 17.5 7.5 17.5C6.17392 17.5 4.90215 16.9732 3.96447 16.0355C3.02678 15.0979 2.5 13.8261 2.5 12.5C2.5 11.1739 3.02678 9.90215 3.96447 8.96447C4.90215 8.02678 6.17392 7.5 7.5 7.5ZM7.5 9.16667C6.61594 9.16667 5.7681 9.51786 5.14298 10.143C4.51786 10.7681 4.16667 11.6159 4.16667 12.5C4.16667 13.3841 4.51786 14.2319 5.14298 14.857C5.7681 15.4821 6.61594 15.8333 7.5 15.8333C8.38405 15.8333 9.2319 15.4821 9.85702 14.857C10.4821 14.2319 10.8333 13.3841 10.8333 12.5C10.8333 11.6159 10.4821 10.7681 9.85702 10.143C9.2319 9.51786 8.38405 9.16667 7.5 9.16667Z" fill="black"/>
 </symbol> 
    <symbol id="femme" viewBox="0 0 20 20">
<path d="M10 3.33333C11.3261 3.33333 12.5979 3.86012 13.5355 4.7978C14.4732 5.73548 15 7.00725 15 8.33333C15 10.8083 13.2 12.8667 10.8333 13.2667V15H12.5V16.6667H10.8333V18.3333H9.16667V16.6667H7.5V15H9.16667V13.2667C6.8 12.8667 5 10.8083 5 8.33333C5 7.00725 5.52678 5.73548 6.46447 4.7978C7.40215 3.86012 8.67392 3.33333 10 3.33333ZM10 5C9.11594 5 8.2681 5.35119 7.64298 5.97631C7.01786 6.60143 6.66667 7.44928 6.66667 8.33333C6.66667 9.21739 7.01786 10.0652 7.64298 10.6904C8.2681 11.3155 9.11594 11.6667 10 11.6667C10.8841 11.6667 11.7319 11.3155 12.357 10.6904C12.9821 10.0652 13.3333 9.21739 13.3333 8.33333C13.3333 7.44928 12.9821 6.60143 12.357 5.97631C11.7319 5.35119 10.8841 5 10 5Z" fill="black"/>
 </symbol> 
 
  </defs>
</svg>
